:SAMPLES-PER-SECOND 30
:FULLY-SPECIFIED
:DEGREES
493
root  -37.1199 33.5893 -2.59626 -142.385 35.9763 -174.514
RightUpLeg  -55.5604 -6.85681 12.99
RightLeg  27.5782 15.175 6.61365
RightFoot  5.8027 -0.0693925 1.74697
RightToes  -26.7788 -0.11684 -0.220367
Spine  11.2595 0.280342 0.838099
Spine1  22.3684 0.523872 1.93471
HEad  -28.6951 -4.1179 -10.2785
LeftShoulder1  -1.94126e-019 -3.10601e-018 -2.51263e-017
LeftArm  41.9316 -4.64835 -64.2656
LeftForeArm  36.8215 -51.2252 -11.0142
LeftHand  -1.44638 -0.361658 28.882
RightShoulder  -4.96962e-017 0 -2.36833e-017
RightArm  33.6628 3.74058 67.197
RightForeArm  67.0077 46.005 7.10091
RightHand  -0.974061 -3.36564 -53.0196
LeftUpLeg  -54.213 7.70334 10.6593
LeftLeg  34.3021 7.67423 4.51393
LeftFoot  3.51508 -0.0180392 0.67944
LeftToes  -31.4009 1.83942e-006 5.51297e-008
494
root  -37.145 33.5849 -2.6304 -142.805 36.4896 -174.695
RightUpLeg  -55.3528 -6.78744 12.635
RightLeg  27.8014 15.3076 6.73918
RightFoot  5.83992 -0.071368 1.77671
RightToes  -27.3218 -0.118124 -0.223292
Spine  11.0539 0.277099 0.77262
Spine1  21.9544 0.517701 1.83916
HEad  -30.386 -4.44084 -11.0328
LeftShoulder1  -1.94126e-019 -3.10601e-018 -2.51263e-017
LeftArm  41.4819 -4.84879 -65.381
LeftForeArm  36.7285 -48.9254 -10.0408
LeftHand  -1.50523 -0.691392 28.4489
RightShoulder  -4.96962e-017 0 -2.36833e-017
RightArm  33.7869 3.67524 67.5945
RightForeArm  66.5757 45.2758 6.89582
RightHand  -0.93002 -3.44651 -52.8088
LeftUpLeg  -53.7045 8.05978 10.1822
LeftLeg  34.1763 7.5443 4.41605
LeftFoot  3.31449 -0.0154371 0.639499
LeftToes  -31.411 1.83942e-006 5.51297e-008
495
root  -37.2016 33.5872 -2.69141 -143.353 37.304 -175.005
RightUpLeg  -55.111 -6.81145 12.1845
RightLeg  27.9662 15.6577 6.94093
RightFoot  5.70938 -0.0716755 1.77928
RightToes  -26.5862 -0.121134 -0.227554
Spine  10.8295 0.264072 0.529428
Spine1  21.494 0.522105 1.3969
HEad  -31.7231 -4.96427 -12.9145
LeftShoulder1  -1.94126e-019 -3.10601e-018 -2.51263e-017
LeftArm  41.0548 -4.7848 -65.8793
LeftForeArm  36.7082 -47.2147 -9.3724
LeftHand  -1.56694 -1.04543 28.0084
RightShoulder  -4.96962e-017 0 -2.36833e-017
RightArm  33.7812 3.64368 68.6368
RightForeArm  66.2185 43.9336 6.50953
RightHand  -0.971062 -3.34913 -52.4883
LeftUpLeg  -53.0144 8.56793 9.40641
LeftLeg  33.9385 7.47507 4.3346
LeftFoot  3.0823 -0.0128609 0.599117
LeftToes  -31.4572 1.83942e-006 5.51297e-008
496
root  -37.2746 33.5893 -2.75566 -143.682 38.4185 -175.119
RightUpLeg  -54.8091 -6.38467 11.5712
RightLeg  28.0287 16.0553 7.13173
RightFoot  5.95148 -0.0805728 1.90134
RightToes  -27.9711 -0.130202 -0.23762
Spine  10.5426 0.309723 0.0938509
Spine1  20.9096 0.692152 0.557431
HEad  -33.1712 -5.98951 -15.4923
LeftShoulder1  -1.94126e-019 -3.10601e-018 -2.51263e-017
LeftArm  40.0262 -4.15919 -65.5767
LeftForeArm  36.428 -46.5903 -9.16132
LeftHand  -1.63362 -1.47205 27.4149
RightShoulder  -4.96962e-017 0 -2.36833e-017
RightArm  34.0032 3.64731 70.3127
RightForeArm  66.2537 42.0568 5.97145
RightHand  -1.00751 -3.26162 -52.2058
LeftUpLeg  -52.4535 9.53354 8.5365
LeftLeg  33.8634 7.25775 4.19693
LeftFoot  2.75876 -0.00910178 0.539533
LeftToes  -31.2553 1.83942e-006 5.51297e-008
497
root  -37.3531 33.5988 -2.80353 -144.066 39.5622 -175.241
RightUpLeg  -54.4655 -6.05839 11.0983
RightLeg  27.846 16.4841 7.25414
RightFoot  6.04258 -0.0865995 1.9794
RightToes  -27.2089 -0.125181 -0.232107
Spine  10.3092 0.284032 -0.262671
Spine1  20.4368 0.698603 -0.133811
HEad  -35.1507 -7.35494 -18.3848
LeftShoulder1  -1.94126e-019 -3.10601e-018 -2.51263e-017
LeftArm  38.9279 -3.40421 -65.1546
LeftForeArm  36.2746 -46.5837 -9.17148
LeftHand  -1.65775 -1.74666 26.7794
RightShoulder  -4.96962e-017 0 -2.36833e-017
RightArm  34.1063 3.64425 71.7861
RightForeArm  66.4777 40.454 5.52998
RightHand  -1.02875 -3.2025 -51.8775
LeftUpLeg  -51.9915 10.5087 7.6682
LeftLeg  33.9629 7.0843 4.11372
LeftFoot  2.62856 -0.00809418 0.514344
LeftToes  -31.2216 1.83942e-006 5.51297e-008
498
root  -37.4469 33.6068 -2.82909 -144.382 40.6432 -175.274
RightUpLeg  -54.1352 -5.70495 10.6628
RightLeg  27.6669 16.9945 7.40866
RightFoot  6.34833 -0.098601 2.13994
RightToes  -27.7454 -0.128708 -0.235995
Spine  10.0667 0.345943 -0.531435
Spine1  19.9515 0.861459 -0.637049
HEad  -37.0489 -8.89342 -20.5343
LeftShoulder1  -1.94126e-019 -3.10601e-018 -2.51263e-017
LeftArm  38.8705 -3.05509 -64.9156
LeftForeArm  36.0258 -46.5807 -9.19046
LeftHand  -1.6397 -1.80374 26.2979
RightShoulder  -4.96962e-017 0 -2.36833e-017
RightArm  33.6256 3.332 72.8678
RightForeArm  66.6051 39.2081 5.20359
RightHand  -1.02855 -3.20121 -51.841
LeftUpLeg  -51.6358 11.3597 6.97404
LeftLeg  34.1497 7.0451 4.12169
LeftFoot  2.515 -0.00790291 0.499191
LeftToes  -30.9929 1.83942e-006 5.51297e-008
499
root  -37.548 33.6058 -2.83656 -144.525 41.436 -175.183
RightUpLeg  -53.9031 -5.45317 10.4241
RightLeg  27.4341 17.4412 7.51386
RightFoot  6.69338 -0.111485 2.31041
RightToes  -28.8142 -0.135841 -0.24364
Spine  9.80145 0.415637 -0.679597
Spine1  19.4241 1.02057 -0.907387
HEad  -39.2252 -10.8395 -21.6511
LeftShoulder1  -1.94126e-019 -3.10601e-018 -2.51263e-017
LeftArm  38.6916 -2.76113 -65.1011
LeftForeArm  35.9619 -46.2137 -9.06374
LeftHand  -1.66072 -2.02346 25.8661
RightShoulder  -4.96962e-017 0 -2.36833e-017
RightArm  32.8588 2.84952 73.5285
RightForeArm  66.2777 38.3083 4.9913
RightHand  -1.02199 -3.20866 -51.7072
LeftUpLeg  -51.4208 11.8416 6.6281
LeftLeg  34.3276 7.18848 4.23477
LeftFoot  2.33265 -0.00745186 0.482086
LeftToes  -30.6765 1.83942e-006 5.51297e-008
500
root  -37.6629 33.5995 -2.85287 -144.916 42.0119 -175.202
RightUpLeg  -53.5833 -5.38282 10.1352
RightLeg  27.3262 17.7562 7.60549
RightFoot  6.90692 -0.120644 2.42519
RightToes  -29.823 -0.142704 -0.250734
Spine  9.56063 0.399474 -0.838352
Spine1  18.9384 1.01687 -1.22698
HEad  -41.2135 -12.5689 -21.7781
LeftShoulder1  -1.94126e-019 -3.10601e-018 -2.51263e-017
LeftArm  38.2727 -2.28183 -65.2634
LeftForeArm  35.8731 -45.817 -8.92822
LeftHand  -1.67851 -2.26985 25.327
RightShoulder  -4.96962e-017 0 -2.36833e-017
RightArm  31.9937 2.54644 74.3723
RightForeArm  65.4734 36.9393 4.68571
RightHand  -0.982285 -3.27554 -51.3488
LeftUpLeg  -51.0152 11.8482 6.45965
LeftLeg  34.4454 7.535 4.45798
LeftFoot  2.13336 -0.00724985 0.469036
LeftToes  -30.3684 1.83942e-006 5.51297e-008
501
root  -37.758 33.5897 -2.87549 -145.392 42.2254 -175.076
RightUpLeg  -52.9842 -5.48821 10.052
RightLeg  27.0785 17.9897 7.61206
RightFoot  7.0854 -0.129495 2.51635
RightToes  -30.687 -0.14868 -0.256712
Spine  9.4209 0.357466 -0.882578
Spine1  18.656 0.946209 -1.3305
HEad  -43.198 -14.0574 -21.6846
LeftShoulder1  -1.94126e-019 -3.10601e-018 -2.51263e-017
LeftArm  38.0989 -2.0626 -65.5153
LeftForeArm  35.903 -45.1924 -8.70594
LeftHand  -1.7093 -2.51375 25.0116
RightShoulder  -4.96962e-017 0 -2.36833e-017
RightArm  31.1356 2.46874 75.134
RightForeArm  64.8642 35.5738 4.38295
RightHand  -0.934851 -3.34797 -50.7171
LeftUpLeg  -50.5024 11.6034 6.61211
LeftLeg  34.6375 7.86523 4.68695
LeftFoot  1.85988 -0.00615482 0.440392
LeftToes  -30.1172 1.83942e-006 5.51297e-008
502
root  -37.8623 33.5762 -2.90102 -145.967 42.299 -174.932
RightUpLeg  -52.314 -5.58969 9.93193
RightLeg  26.8883 18.0484 7.5673
RightFoot  7.23883 -0.136256 2.57647
RightToes  -31.4485 -0.154021 -0.261906
Spine  9.27641 0.298335 -0.864358
Spine1  18.3671 0.829401 -1.30855
HEad  -44.4479 -14.9372 -21.8818
LeftShoulder1  -1.94126e-019 -3.10601e-018 -2.51263e-017
LeftArm  37.9452 -1.78181 -65.8988
LeftForeArm  35.7569 -44.6169 -8.5172
LeftHand  -1.72526 -2.753 24.5257
RightShoulder  -4.96962e-017 0 -2.36833e-017
RightArm  30.8591 2.55458 75.7644
RightForeArm  64.7224 34.2732 4.0879
RightHand  -0.921375 -3.35051 -50.1189
LeftUpLeg  -50.0515 11.4909 6.69341
LeftLeg  35.0034 7.93109 4.79419
LeftFoot  1.55003 -0.00416972 0.394299
LeftToes  -29.6747 1.83942e-006 5.51297e-008
503
root  -37.9785 33.5665 -2.95268 -146.751 42.2835 -174.817
RightUpLeg  -51.4512 -5.88298 9.81635
RightLeg  26.7113 18.1405 7.54038
RightFoot  7.34186 -0.142169 2.6247
RightToes  -32.202 -0.159374 -0.266975
Spine  9.09702 0.267015 -0.819385
Spine1  18.0084 0.765615 -1.23134
HEad  -44.7139 -15.5014 -22.3788
LeftShoulder1  -1.94126e-019 -3.10601e-018 -2.51263e-017
LeftArm  38.0401 -1.53015 -66.4127
LeftForeArm  36.1572 -43.6877 -8.17891
LeftHand  -1.73402 -2.91072 24.1969
RightShoulder  -4.96962e-017 0 -2.36833e-017
RightArm  30.7043 2.42686 76.3237
RightForeArm  65.1563 33.0743 3.80216
RightHand  -0.964697 -3.2265 -49.4791
LeftUpLeg  -49.4037 11.4589 6.69362
LeftLeg  35.2844 7.80015 4.7678
LeftFoot  1.28162 -0.00257021 0.348682
LeftToes  -29.7429 1.83942e-006 5.51297e-008
504
root  -38.1166 33.5659 -3.01182 -147.371 42.3759 -174.783
RightUpLeg  -50.7263 -5.8796 9.42862
RightLeg  26.3456 18.0676 7.38024
RightFoot  7.51784 -0.147649 2.67187
RightToes  -33.317 -0.167416 -0.274346
Spine  8.899 0.255762 -0.780133
Spine1  17.6196 0.736712 -1.15185
HEad  -44.8086 -15.9703 -22.9034
LeftShoulder1  -1.94126e-019 -3.10601e-018 -2.51263e-017
LeftArm  38.0855 -1.48279 -66.8505
LeftForeArm  35.3796 -42.9799 -8.00073
LeftHand  -1.71512 -3.11104 23.4016
RightShoulder  -4.96962e-017 0 -2.36833e-017
RightArm  30.1185 2.34117 76.8608
RightForeArm  65.125 32.171 3.60712
RightHand  -1.03508 -3.02305 -48.5475
LeftUpLeg  -48.9815 11.6844 6.4067
LeftLeg  35.5199 7.5128 4.63598
LeftFoot  0.941396 -0.000688847 0.291269
LeftToes  -29.1117 1.83942e-006 5.51297e-008
505
root  -38.2654 33.571 -3.12043 -148.374 42.4438 -174.937
RightUpLeg  -49.7341 -6.18922 8.93631
RightLeg  26.0338 18.099 7.28107
RightFoot  7.6262 -0.152919 2.71209
RightToes  -35.5338 -0.183824 -0.288529
Spine  8.70989 0.225102 -0.730742
Spine1  17.2485 0.669491 -1.05787
HEad  -44.4609 -16.5603 -23.5322
LeftShoulder1  -1.94126e-019 -3.10601e-018 -2.51263e-017
LeftArm  37.7911 -1.30901 -67.6504
LeftForeArm  35.4224 -41.6853 -7.59121
LeftHand  -1.73546 -3.46518 22.7609
RightShoulder  -4.96962e-017 0 -2.36833e-017
RightArm  29.58 2.2013 77.2762
RightForeArm  64.8343 31.2932 3.43009
RightHand  -0.976123 -3.07638 -47.0135
LeftUpLeg  -48.1789 11.6616 6.05857
LeftLeg  35.6255 7.37226 4.56865
LeftFoot  0.679358 -0.000532196 0.251344
LeftToes  -28.9929 1.83942e-006 5.51297e-008
506
root  -38.418 33.5714 -3.25753 -149.421 42.6592 -175.048
RightUpLeg  -48.7145 -6.515 8.40372
RightLeg  25.9045 18.3369 7.32605
RightFoot  7.78847 -0.161644 2.80676
RightToes  -39.4934 -0.214449 -0.312243
Spine  8.45733 0.288305 -0.708076
Spine1  16.7476 0.791397 -0.998262
HEad  -44.2416 -16.9419 -23.5455
LeftShoulder1  -1.94126e-019 -3.10601e-018 -2.51263e-017
LeftArm  37.4679 -1.00909 -68.4282
LeftForeArm  35.8659 -40.5276 -7.21399
LeftHand  -1.7131 -3.65276 22.0304
RightShoulder  -4.96962e-017 0 -2.36833e-017
RightArm  28.3091 1.79637 77.8369
RightForeArm  64.5439 30.3491 3.24193
RightHand  -0.945912 -3.04392 -45.0952
LeftUpLeg  -47.2905 11.9571 5.58155
LeftLeg  35.8025 7.05976 4.40658
LeftFoot  0.177884 -2.22686e-005 0.176038
LeftToes  -28.5218 1.83942e-006 5.51297e-008
